<svg xmlns="http://www.w3.org/2000/svg" viewBox="0 0 1286.77 719.51"><g id="Layer_2" data-name="Layer 2"><g id="Layer_2-2" data-name="Layer 2"><path d="M26.06,260.8a22.22,22.22,0,0,0-8.37,12.84l-2.23,10.44a12.67,12.67,0,0,1-4.77,7.34L5,295.75c-5.13,3.91-6.56,10.65-3.21,15l7.09,9.27c3.35,4.39,10.22,4.78,15.34.87l30.15-23c9-6.84,11.48-18.62,5.61-26.3l-7.09-9.28C47.05,254.64,35,254,26.06,260.8Zm24.79,32.47-30.15,23c-2.51,1.92-5.8,2-7.17.23l-1.85-2.43a13,13,0,0,0,5.48-2.44l30.15-23a22.2,22.2,0,0,0,8.38-12.93C59.07,280.83,57,288.55,50.85,293.27ZM43.77,284,13.62,307c-2.52,1.92-5.8,2-7.17.23s-.41-4.93,2.11-6.85l5.67-4.33a18.46,18.46,0,0,0,6.94-10.76l2.23-10.44a16.27,16.27,0,0,1,6.2-9.42c6.39-4.88,14.77-4.69,18.68.42S50.16,279.11,43.77,284Z"/><ellipse cx="36.68" cy="274.72" rx="5.47" ry="4.38" transform="translate(-159.2 78.65) rotate(-37.37)"/><path d="M222,284.59a17.9,17.9,0,0,0-13.81-17.5l-8.73-2a17.84,17.84,0,0,1-11.14-8,32.63,32.63,0,0,0,4.1,24.72l2.81,4.52a9.5,9.5,0,0,1-13.08-3.05,17.9,17.9,0,0,0,9.6,20.13L222,284.6Z"/><path d="M187.23,314.31l3.63,5.82a13.71,13.71,0,0,0,18.88,4.41L233,310.05a13.72,13.72,0,0,0,4.4-18.89l22.38-16-2.71-4.36Z"/><path d="M457.29,256.91a1.48,1.48,0,0,0-.37-.49,1.55,1.55,0,0,0-.54-.28c-8.91-2.2-17.65-.53-23.85,4.64l-34.78,28.78a1.36,1.36,0,0,0-.34.41,1.5,1.5,0,0,0-.15.51,1.41,1.41,0,0,0,.3,1l1,1.23L375,312.23a5.87,5.87,0,0,0-1.54,7.06,5.78,5.78,0,0,0,1.59,2c1.7,1.4,3.76,3.39,6.15,3.3a4.79,4.79,0,0,0,3.74-1.55,4.83,4.83,0,0,0,1-1.8,4.69,4.69,0,0,0,.17-2.07,2.27,2.27,0,0,1,.82-2.14l18.91-15.63,3.66,4.43a1.65,1.65,0,0,0,.41.34,1.57,1.57,0,0,0,.51.15,1.37,1.37,0,0,0,.9-.23l9.15-6.35a115.54,115.54,0,0,0,36.79-41.67,1.33,1.33,0,0,0,.16-.58,1.36,1.36,0,0,0-.11-.6ZM419,297.55l-8.1,5.64-10.29-12.45,33.69-27.88A23.8,23.8,0,0,1,454,258.41,113.08,113.08,0,0,1,419,297.55Z"/><path d="M636.84,316.91a6,6,0,0,0-2-1.37,6.25,6.25,0,0,0-2.37-.5H625a15.79,15.79,0,0,0,9.6-14.48V288.72a1.26,1.26,0,0,0-.37-.9,1.31,1.31,0,0,0-.9-.37H620.11v-7.68h5.15a1.31,1.31,0,0,0,.9-.37,1.26,1.26,0,0,0,.37-.9v-3.71h1.76a1.24,1.24,0,0,0,.89-.37,1.26,1.26,0,0,0,.37-.89v-8.62A11.92,11.92,0,0,0,617.64,253H575.86a10.89,10.89,0,0,0-.75,21.75,94,94,0,0,1-1.85,17.14,92.42,92.42,0,0,1-5.5,17.61c-2.55,5.29-5.86,16.29,3.09,16.94h61.87C637.52,326.59,640.36,320.3,636.84,316.91Zm-20.57-54.27h2.53a1.26,1.26,0,0,1,.9.37,1.24,1.24,0,0,1,.37.89,1.26,1.26,0,0,1-.37.9,1.31,1.31,0,0,1-.9.37h-2.53a1.28,1.28,0,0,1-.89-.37,1.26,1.26,0,0,1-.37-.9,1.26,1.26,0,0,1,1.26-1.26Zm-2.53,12.15h10.32v2.45H613.68Zm-6-12.15h2.53a1.26,1.26,0,0,1,1.26,1.26,1.26,1.26,0,0,1-.37.9,1.28,1.28,0,0,1-.89.37h-2.53a1.31,1.31,0,0,1-.9-.37,1.26,1.26,0,0,1-.37-.9,1.24,1.24,0,0,1,.37-.89A1.26,1.26,0,0,1,607.78,262.64Zm-8.56,0h2.53A1.28,1.28,0,0,1,603,263.9a1.28,1.28,0,0,1-1.27,1.27h-2.58a1.31,1.31,0,0,1-.9-.37,1.26,1.26,0,0,1-.37-.9,1.24,1.24,0,0,1,.37-.89,1.26,1.26,0,0,1,.9-.37Zm12,12.15v3.71a1.26,1.26,0,0,0,.37.9,1.3,1.3,0,0,0,.89.37h5.17v7.68H604.36a1.31,1.31,0,0,0-.9.37,1.26,1.26,0,0,0-.37.9v11.84A15.74,15.74,0,0,0,612.66,315H590.85a5.07,5.07,0,0,1-5.07-5.06v-3.8a52.51,52.51,0,0,1,10.49-31.35ZM635,323a3.12,3.12,0,0,1-1,.7,3.07,3.07,0,0,1-1.24.23H570.85c-6.23-.52-2.25-10-.76-13.42a94.14,94.14,0,0,0,7.55-35.7h15.5a55.14,55.14,0,0,0-9.88,31.39V310a7.61,7.61,0,0,0,7.6,7.6h41.61c2.78-.08,4.61,3.39,2.48,5.4Z"/><path d="M845.61,273,822,249.41a1.44,1.44,0,0,0-2,0l-18.91,18.9a13.72,13.72,0,0,0,0,19.39l2.12,2.1L786.5,306.51l-2.09-2a1.29,1.29,0,0,0-.46-.31,1.41,1.41,0,0,0-1.09,0,1.42,1.42,0,0,0-.47.31l-17.16,17.06a5.84,5.84,0,1,0,8.26,8.27l17.07-17.17a1.44,1.44,0,0,0,.31-.46,1.43,1.43,0,0,0,0-1.1,1.44,1.44,0,0,0-.31-.46l-2.09-2.09,16.75-16.7,2.11,2.11a13.71,13.71,0,0,0,19.38,0L845.61,275a1.42,1.42,0,0,0,0-2Zm-74.18,54.77a3,3,0,0,1-4.18,0,3,3,0,0,1-.65-1,3.15,3.15,0,0,1-.22-1.13,3,3,0,0,1,.87-2.1l16.2-16.15,4.14,4.14ZM809,275.57a1.44,1.44,0,0,1,0-2l8.38-8.37a1.41,1.41,0,0,1,1-.35,1.46,1.46,0,0,1,.95.42,1.4,1.4,0,0,1,.41.95,1.36,1.36,0,0,1-.34,1L811,275.57a1.44,1.44,0,0,1-2,0Zm4,8.53a1.44,1.44,0,0,1-2,0,1.45,1.45,0,0,1-.41-1,1.41,1.41,0,0,1,.41-1l15-15a1.43,1.43,0,0,1,1.93.07,1.42,1.42,0,0,1,.08,1.93Zm16.91-6.41-8.38,8.37a1.42,1.42,0,0,1-2.42-1,1.4,1.4,0,0,1,.42-1l8.37-8.38a1.48,1.48,0,0,1,1-.34,1.44,1.44,0,0,1,1.37,1.37,1.48,1.48,0,0,1-.34,1Z"/><path d="M969.42,265.9a22.22,22.22,0,0,0-8.37,12.84l-2.22,10.44a12.69,12.69,0,0,1-4.78,7.34l-5.67,4.33c-5.13,3.92-6.56,10.65-3.21,15l7.09,9.27c3.35,4.39,10.22,4.78,15.34.87l30.15-23c9-6.85,11.48-18.63,5.61-26.31l-7.08-9.28C990.41,259.74,978.38,259.06,969.42,265.9Zm24.79,32.47-30.15,23c-2.51,1.92-5.8,2-7.16.23L955,319.19a13,13,0,0,0,5.48-2.44l30.15-23a22.14,22.14,0,0,0,8.38-12.93C1002.43,285.93,1000.39,293.65,994.21,298.37Zm-7.08-9.28-30.15,23c-2.52,1.93-5.8,2-7.17.24s-.4-4.94,2.11-6.86l5.67-4.33a18.46,18.46,0,0,0,6.94-10.76L966.76,280a16.27,16.27,0,0,1,6.2-9.42c6.39-4.88,14.77-4.69,18.68.42S993.52,284.21,987.13,289.09Z"/><ellipse cx="980.04" cy="279.82" rx="5.47" ry="4.38" transform="translate(31.32 652.24) rotate(-37.37)"/><path d="M1175.51,279.28a17.88,17.88,0,0,0-13.81-17.5l-8.72-2a17.86,17.86,0,0,1-11.14-8,32.65,32.65,0,0,0,4.1,24.73l2.81,4.52a9.5,9.5,0,0,1-13.08-3,17.89,17.89,0,0,0,9.6,20.13l30.24-18.82Z"/><path d="M1140.72,309l3.62,5.82a13.71,13.71,0,0,0,18.89,4.4l23.29-14.48a13.71,13.71,0,0,0,4.4-18.89l22.39-16-2.72-4.36Z"/><path d="M1232.85,398.32l-7.08,9.28c-5.87,7.68-3.36,19.46,5.61,26.3l30.15,23c5.12,3.91,12,3.52,15.34-.87l7.09-9.27c3.35-4.39,1.92-11.13-3.21-15l-5.67-4.33a12.69,12.69,0,0,1-4.78-7.34l-2.22-10.44a22.22,22.22,0,0,0-8.37-12.84C1250.75,390,1238.72,390.64,1232.85,398.32Zm-2.77,13.38a22.2,22.2,0,0,0,8.38,12.93l30.15,23a13,13,0,0,0,5.48,2.44l-1.86,2.43c-1.36,1.8-4.65,1.69-7.16-.23l-30.15-23C1228.74,424.55,1226.7,416.83,1230.08,411.7Zm7.41-9.84c3.91-5.11,12.29-5.3,18.68-.42a16.27,16.27,0,0,1,6.2,9.42l2.23,10.44a18.46,18.46,0,0,0,6.94,10.76l5.67,4.33c2.51,1.92,3.48,5.06,2.11,6.85s-4.65,1.69-7.17-.23L1242,420C1235.61,415.11,1233.59,407,1237.49,401.86Z"/><ellipse cx="1249.09" cy="410.72" rx="4.38" ry="5.47" transform="translate(164.56 1154.17) rotate(-52.63)"/><path d="M1063.74,420.6,1094,439.41a17.89,17.89,0,0,0,9.59-20.13,9.49,9.49,0,0,1-13.07,3.05l2.81-4.52a32.72,32.72,0,0,0,4.1-24.72,17.84,17.84,0,0,1-11.14,8l-8.73,2a17.89,17.89,0,0,0-13.81,17.5Z"/><path d="M1028.66,406.85l-2.71,4.36,22.38,16a13.72,13.72,0,0,0,4.4,18.89L1076,460.54a13.72,13.72,0,0,0,18.89-4.41l3.63-5.82Z"/><path d="M828.48,392.91a1.36,1.36,0,0,0-.11.6,1.33,1.33,0,0,0,.16.58,115.54,115.54,0,0,0,36.79,41.67l9.15,6.35a1.36,1.36,0,0,0,.9.23,1.45,1.45,0,0,0,.5-.15,1.53,1.53,0,0,0,.42-.34l3.66-4.43,18.91,15.63a2.33,2.33,0,0,1,.82,2.14,4.78,4.78,0,0,0,1.2,3.87,4.79,4.79,0,0,0,3.74,1.55c2.39.09,4.45-1.9,6.15-3.3a5.92,5.92,0,0,0,1.62-7,6,6,0,0,0-1.57-2L887.18,428.7l1-1.23a1.46,1.46,0,0,0,.3-1,1.5,1.5,0,0,0-.15-.51,1.36,1.36,0,0,0-.34-.41l-34.78-28.78c-6.2-5.17-14.94-6.84-23.85-4.64a1.55,1.55,0,0,0-.54.28,1.48,1.48,0,0,0-.37.49Zm38.34,40.64a112.88,112.88,0,0,1-35.05-39.14,23.77,23.77,0,0,1,19.74,4.45l33.7,27.88-10.29,12.45-8.1-5.64Z"/><path d="M653.05,462.44h61.86c9-.65,5.65-11.65,3.09-16.94a91.79,91.79,0,0,1-7.34-34.75,10.89,10.89,0,0,0-.75-21.75H668.13a11.93,11.93,0,0,0-11.92,11.91v8.62a1.3,1.3,0,0,0,.37.89,1.26,1.26,0,0,0,.9.37h1.76v3.71a1.26,1.26,0,0,0,.37.9,1.31,1.31,0,0,0,.9.37h5.15v7.68H652.41a1.3,1.3,0,0,0-.89.37,1.26,1.26,0,0,0-.37.9v11.84a15.75,15.75,0,0,0,9.6,14.48H653.3a6.25,6.25,0,0,0-2.37.5,6,6,0,0,0-2,1.37C645.41,456.3,648.25,462.59,653.05,462.44ZM670.39,399a1.24,1.24,0,0,1,.37.89,1.26,1.26,0,0,1-.37.9,1.3,1.3,0,0,1-.89.37H667a1.3,1.3,0,0,1-.89-.37,1.26,1.26,0,0,1-.37-.9,1.24,1.24,0,0,1,.37-.89,1.26,1.26,0,0,1,.89-.37h2.54A1.26,1.26,0,0,1,670.39,399Zm1.7,14.23H661.71v-2.45H672Zm6.8-14.23a1.24,1.24,0,0,1,.37.89,1.26,1.26,0,0,1-.37.9,1.31,1.31,0,0,1-.9.37h-2.53a1.26,1.26,0,0,1-1.27-1.27,1.28,1.28,0,0,1,.37-.89,1.26,1.26,0,0,1,.9-.37H678A1.26,1.26,0,0,1,678.89,399Zm7.71-.37a1.26,1.26,0,0,1,.9.37,1.24,1.24,0,0,1,.37.89,1.26,1.26,0,0,1-.37.9,1.31,1.31,0,0,1-.9.37H684a1.26,1.26,0,0,1-1.27-1.27,1.28,1.28,0,0,1,.37-.89,1.26,1.26,0,0,1,.9-.37h2.58Zm2.9,12.19A52.51,52.51,0,0,1,700,442.18V446a5.07,5.07,0,0,1-5.07,5.06H673.1a15.77,15.77,0,0,0,9.58-14.48V424.72a1.26,1.26,0,0,0-1.27-1.27H668.13v-7.68h5.16a1.31,1.31,0,0,0,.9-.37,1.26,1.26,0,0,0,.37-.9v-3.71ZM650.82,459c-2.13-2-.3-5.48,2.48-5.4h41.61a7.61,7.61,0,0,0,7.6-7.6v-3.8a55.14,55.14,0,0,0-9.88-31.39h15.5a94.38,94.38,0,0,0,7.54,35.7c1.5,3.38,5.47,12.9-.76,13.42H653.05a3.07,3.07,0,0,1-1.24-.23,3.12,3.12,0,0,1-1-.7Z"/><path d="M439.74,410a1.38,1.38,0,0,0,.42,1l18.9,18.92a13.71,13.71,0,0,0,19.38,0l2.11-2.11,16.75,16.7-2.09,2.09a1.44,1.44,0,0,0-.31.46,1.43,1.43,0,0,0,0,1.1,1.44,1.44,0,0,0,.31.46l17.07,17.17a5.84,5.84,0,0,0,8.26-8.27l-17.17-17.06a1.29,1.29,0,0,0-.46-.31,1.41,1.41,0,0,0-1.09,0,1.33,1.33,0,0,0-.47.31l-2.09,2L482.55,425.8l2.12-2.1a13.75,13.75,0,0,0,0-19.39l-18.91-18.9a1.44,1.44,0,0,0-2,0L440.16,409A1.38,1.38,0,0,0,439.74,410Zm58.44,37.57,4.14-4.14,16.2,16.15a3,3,0,0,1,.87,2.1,3,3,0,0,1-.87,2.09,3,3,0,0,1-4.18,0Zm-21.37-36a1.44,1.44,0,0,1-2,0l-8.37-8.38a1.41,1.41,0,0,1-.35-1,1.44,1.44,0,0,1,1.37-1.37,1.41,1.41,0,0,1,1,.35l8.38,8.37a1.44,1.44,0,0,1,0,2Zm-18.92-6.42a1.45,1.45,0,0,1-.34-1,1.43,1.43,0,0,1,2.35-1l14.94,15a1.38,1.38,0,0,1,.42,1,1.42,1.42,0,0,1-.42,1,1.37,1.37,0,0,1-1,.41,1.41,1.41,0,0,1-1-.41Zm-2,8.54a1.43,1.43,0,0,1-.34-1,1.42,1.42,0,0,1,1.36-1.37,1.45,1.45,0,0,1,1,.34l8.38,8.38a1.39,1.39,0,0,1,.41,1,1.37,1.37,0,0,1-.41,1,1.42,1.42,0,0,1-1,.42,1.38,1.38,0,0,1-1-.42l-8.38-8.37Z"/><path d="M289.49,403.42l-7.08,9.28c-5.87,7.68-3.36,19.46,5.6,26.31l30.15,23c5.13,3.91,12,3.52,15.35-.87l7.09-9.27c3.35-4.39,1.91-11.12-3.21-15l-5.67-4.33a12.64,12.64,0,0,1-4.78-7.34l-2.22-10.44a22.22,22.22,0,0,0-8.37-12.84C307.39,395.06,295.36,395.74,289.49,403.42Zm-2.77,13.38a22.14,22.14,0,0,0,8.38,12.93l30.15,23a13,13,0,0,0,5.48,2.44l-1.86,2.43c-1.37,1.8-4.65,1.69-7.16-.23l-30.15-23C285.38,429.65,283.34,421.93,286.72,416.8Zm7.41-9.84c3.91-5.11,12.29-5.3,18.68-.42A16.27,16.27,0,0,1,319,416l2.22,10.44a18.48,18.48,0,0,0,6.95,10.76l5.67,4.33c2.51,1.92,3.48,5.06,2.11,6.86s-4.66,1.69-7.17-.24l-30.15-23C292.25,420.21,290.23,412.08,294.13,407Z"/><ellipse cx="305.73" cy="415.82" rx="4.38" ry="5.47" transform="translate(-210.3 406.43) rotate(-52.63)"/><path d="M110.26,415.28,140.5,434.1A17.9,17.9,0,0,0,150.1,414,9.5,9.5,0,0,1,137,417l2.81-4.52a32.65,32.65,0,0,0,4.1-24.73,17.86,17.86,0,0,1-11.14,8l-8.73,2a17.88,17.88,0,0,0-13.8,17.5Z"/><path d="M75.18,401.54l-2.72,4.36,22.39,16a13.71,13.71,0,0,0,4.4,18.89l23.29,14.48a13.71,13.71,0,0,0,18.89-4.4l3.62-5.82Z"/><path d="M26.06,512.8a22.22,22.22,0,0,0-8.37,12.84l-2.23,10.44a12.67,12.67,0,0,1-4.77,7.34L5,547.75c-5.13,3.91-6.56,10.65-3.21,15l7.09,9.27c3.35,4.39,10.22,4.78,15.34.87l30.15-23c9-6.84,11.48-18.62,5.61-26.3l-7.09-9.28C47.05,506.64,35,506,26.06,512.8Zm24.79,32.47-30.15,23c-2.51,1.92-5.8,2-7.17.23l-1.85-2.43a13,13,0,0,0,5.48-2.44l30.15-23a22.2,22.2,0,0,0,8.38-12.93C59.07,532.83,57,540.55,50.85,545.27ZM43.77,536,13.62,559c-2.52,1.92-5.8,2-7.17.23s-.41-4.93,2.11-6.85l5.67-4.33a18.46,18.46,0,0,0,6.94-10.76l2.23-10.44a16.27,16.27,0,0,1,6.2-9.42c6.39-4.88,14.77-4.69,18.68.42S50.16,531.11,43.77,536Z"/><ellipse cx="36.68" cy="526.72" rx="5.47" ry="4.38" transform="translate(-312.15 130.37) rotate(-37.37)"/><path d="M222,536.59a17.9,17.9,0,0,0-13.81-17.5l-8.73-2a17.84,17.84,0,0,1-11.14-8,32.63,32.63,0,0,0,4.1,24.72l2.81,4.52a9.5,9.5,0,0,1-13.08-3.05,17.9,17.9,0,0,0,9.6,20.13L222,536.6Z"/><path d="M187.23,566.31l3.63,5.82a13.71,13.71,0,0,0,18.88,4.41L233,562.05a13.72,13.72,0,0,0,4.4-18.89l22.38-15.95-2.71-4.36Z"/><path d="M457.29,508.91a1.48,1.48,0,0,0-.37-.49,1.55,1.55,0,0,0-.54-.28c-8.91-2.2-17.65-.53-23.85,4.64l-34.78,28.78a1.36,1.36,0,0,0-.34.41,1.5,1.5,0,0,0-.15.51,1.41,1.41,0,0,0,.3,1l1,1.23L375,564.23a5.87,5.87,0,0,0-1.54,7.06,5.78,5.78,0,0,0,1.59,2c1.7,1.4,3.76,3.39,6.15,3.3a4.79,4.79,0,0,0,3.74-1.55,4.83,4.83,0,0,0,1-1.8,4.69,4.69,0,0,0,.17-2.07,2.27,2.27,0,0,1,.82-2.14l18.91-15.63,3.66,4.43a1.65,1.65,0,0,0,.41.34,1.57,1.57,0,0,0,.51.15,1.37,1.37,0,0,0,.9-.23l9.15-6.35a115.54,115.54,0,0,0,36.79-41.67,1.33,1.33,0,0,0,.16-.58,1.36,1.36,0,0,0-.11-.6ZM419,549.55l-8.1,5.64-10.29-12.45,33.69-27.88A23.8,23.8,0,0,1,454,510.41,113.08,113.08,0,0,1,419,549.55Z"/><path d="M636.84,568.91a6,6,0,0,0-2-1.37,6.25,6.25,0,0,0-2.37-.5H625a15.79,15.79,0,0,0,9.6-14.48V540.72a1.26,1.26,0,0,0-.37-.9,1.31,1.31,0,0,0-.9-.37H620.11v-7.68h5.15a1.31,1.31,0,0,0,.9-.37,1.26,1.26,0,0,0,.37-.9v-3.71h1.76a1.24,1.24,0,0,0,.89-.37,1.26,1.26,0,0,0,.37-.89v-8.62A11.92,11.92,0,0,0,617.64,505H575.86a10.89,10.89,0,0,0-.75,21.75,94,94,0,0,1-1.85,17.14,92.42,92.42,0,0,1-5.5,17.61c-2.55,5.29-5.86,16.29,3.09,16.94h61.87C637.52,578.59,640.36,572.3,636.84,568.91Zm-20.57-54.27h2.53a1.26,1.26,0,0,1,.9.37,1.24,1.24,0,0,1,.37.89,1.26,1.26,0,0,1-.37.9,1.31,1.31,0,0,1-.9.37h-2.53a1.28,1.28,0,0,1-.89-.37,1.26,1.26,0,0,1-.37-.9,1.26,1.26,0,0,1,1.26-1.26Zm-2.53,12.15h10.32v2.45H613.68Zm-6-12.15h2.53a1.26,1.26,0,0,1,1.26,1.26,1.26,1.26,0,0,1-.37.9,1.28,1.28,0,0,1-.89.37h-2.53a1.31,1.31,0,0,1-.9-.37,1.26,1.26,0,0,1-.37-.9,1.24,1.24,0,0,1,.37-.89A1.26,1.26,0,0,1,607.78,514.64Zm-8.56,0h2.53A1.28,1.28,0,0,1,603,515.9a1.28,1.28,0,0,1-1.27,1.27h-2.58a1.31,1.31,0,0,1-.9-.37,1.26,1.26,0,0,1-.37-.9,1.24,1.24,0,0,1,.37-.89,1.26,1.26,0,0,1,.9-.37Zm12,12.15v3.71a1.26,1.26,0,0,0,.37.9,1.3,1.3,0,0,0,.89.37h5.17v7.68H604.36a1.31,1.31,0,0,0-.9.37,1.26,1.26,0,0,0-.37.9v11.84A15.74,15.74,0,0,0,612.66,567H590.85a5.07,5.07,0,0,1-5.07-5.06v-3.8a52.51,52.51,0,0,1,10.49-31.35ZM635,575a3.12,3.12,0,0,1-1,.7,3.07,3.07,0,0,1-1.24.23H570.85c-6.23-.52-2.25-10-.76-13.42a94.14,94.14,0,0,0,7.55-35.7h15.5a55.14,55.14,0,0,0-9.88,31.39V562a7.61,7.61,0,0,0,7.6,7.6h41.61c2.78-.08,4.61,3.39,2.48,5.4Z"/><path d="M845.61,525,822,501.41a1.44,1.44,0,0,0-2,0l-18.91,18.9a13.72,13.72,0,0,0,0,19.39l2.12,2.1L786.5,558.51l-2.09-2a1.29,1.29,0,0,0-.46-.31,1.41,1.41,0,0,0-1.09,0,1.42,1.42,0,0,0-.47.31l-17.16,17.06a5.84,5.84,0,1,0,8.26,8.27l17.07-17.17a1.44,1.44,0,0,0,.31-.46,1.43,1.43,0,0,0,0-1.1,1.44,1.44,0,0,0-.31-.46l-2.09-2.09,16.75-16.7,2.11,2.11a13.71,13.71,0,0,0,19.38,0L845.61,527a1.42,1.42,0,0,0,0-2Zm-74.18,54.77a3,3,0,0,1-4.18,0,3,3,0,0,1-.65-1,3.15,3.15,0,0,1-.22-1.13,3,3,0,0,1,.87-2.1l16.2-16.15,4.14,4.14ZM809,527.57a1.44,1.44,0,0,1,0-2l8.38-8.37a1.41,1.41,0,0,1,1-.35,1.46,1.46,0,0,1,.95.42,1.4,1.4,0,0,1,.41,1,1.36,1.36,0,0,1-.34,1L811,527.57a1.44,1.44,0,0,1-2,0Zm4,8.53a1.44,1.44,0,0,1-2,0,1.45,1.45,0,0,1-.41-1,1.41,1.41,0,0,1,.41-1l15-15a1.43,1.43,0,0,1,1.93.07,1.42,1.42,0,0,1,.08,1.93Zm16.91-6.41-8.38,8.37a1.42,1.42,0,0,1-2.42-1,1.4,1.4,0,0,1,.42-1l8.37-8.38a1.48,1.48,0,0,1,1-.34,1.44,1.44,0,0,1,1.37,1.37,1.48,1.48,0,0,1-.34,1Z"/><path d="M969.42,517.9a22.22,22.22,0,0,0-8.37,12.84l-2.22,10.44a12.69,12.69,0,0,1-4.78,7.34l-5.67,4.33c-5.13,3.92-6.56,10.65-3.21,15l7.09,9.27c3.35,4.39,10.22,4.78,15.34.87l30.15-23c9-6.85,11.48-18.63,5.61-26.31l-7.08-9.28C990.41,511.74,978.38,511.06,969.42,517.9Zm24.79,32.47-30.15,23c-2.51,1.92-5.8,2-7.16.23L955,571.19a13,13,0,0,0,5.48-2.44l30.15-23a22.14,22.14,0,0,0,8.38-12.93C1002.43,537.93,1000.39,545.65,994.21,550.37Zm-7.08-9.28-30.15,23c-2.52,1.93-5.8,2-7.17.24s-.4-4.94,2.11-6.86l5.67-4.33a18.46,18.46,0,0,0,6.94-10.76L966.76,532a16.27,16.27,0,0,1,6.2-9.42c6.39-4.88,14.77-4.69,18.68.42S993.52,536.21,987.13,541.09Z"/><ellipse cx="980.04" cy="531.82" rx="5.47" ry="4.38" transform="translate(-121.63 703.96) rotate(-37.37)"/><path d="M1175.51,531.28a17.88,17.88,0,0,0-13.81-17.5l-8.72-2a17.86,17.86,0,0,1-11.14-8,32.65,32.65,0,0,0,4.1,24.73l2.81,4.52a9.5,9.5,0,0,1-13.08-3,17.89,17.89,0,0,0,9.6,20.13l30.24-18.82Z"/><path d="M1140.72,561l3.62,5.82a13.71,13.71,0,0,0,18.89,4.4l23.29-14.48a13.71,13.71,0,0,0,4.4-18.89l22.39-16-2.72-4.36Z"/><path d="M1232.85,650.32l-7.08,9.28c-5.87,7.68-3.36,19.46,5.61,26.3l30.15,23c5.12,3.91,12,3.52,15.34-.87l7.09-9.27c3.35-4.39,1.92-11.13-3.21-15l-5.67-4.33a12.69,12.69,0,0,1-4.78-7.34l-2.22-10.44a22.22,22.22,0,0,0-8.37-12.84C1250.75,642,1238.72,642.64,1232.85,650.32Zm-2.77,13.38a22.2,22.2,0,0,0,8.38,12.93l30.15,23a13,13,0,0,0,5.48,2.44l-1.86,2.43c-1.36,1.8-4.65,1.69-7.16-.23l-30.15-23C1228.74,676.55,1226.7,668.83,1230.08,663.7Zm7.41-9.84c3.91-5.11,12.29-5.3,18.68-.42a16.27,16.27,0,0,1,6.2,9.42l2.23,10.44a18.46,18.46,0,0,0,6.94,10.76l5.67,4.33c2.51,1.92,3.48,5.06,2.11,6.85s-4.65,1.69-7.17-.23L1242,672C1235.61,667.11,1233.59,659,1237.49,653.86Z"/><ellipse cx="1249.09" cy="662.72" rx="4.38" ry="5.47" transform="translate(-35.71 1253.22) rotate(-52.63)"/><path d="M1063.74,672.6,1094,691.41a17.89,17.89,0,0,0,9.59-20.13,9.49,9.49,0,0,1-13.07,3.05l2.81-4.52a32.72,32.72,0,0,0,4.1-24.72,17.84,17.84,0,0,1-11.14,8l-8.73,2a17.89,17.89,0,0,0-13.81,17.5Z"/><path d="M1028.66,658.85l-2.71,4.36,22.38,15.95a13.72,13.72,0,0,0,4.4,18.89L1076,712.54a13.72,13.72,0,0,0,18.89-4.41l3.63-5.82Z"/><path d="M828.48,644.91a1.36,1.36,0,0,0-.11.6,1.33,1.33,0,0,0,.16.58,115.54,115.54,0,0,0,36.79,41.67l9.15,6.35a1.36,1.36,0,0,0,.9.23,1.45,1.45,0,0,0,.5-.15,1.53,1.53,0,0,0,.42-.34l3.66-4.43,18.91,15.63a2.33,2.33,0,0,1,.82,2.14,4.78,4.78,0,0,0,1.2,3.87,4.79,4.79,0,0,0,3.74,1.55c2.39.09,4.45-1.9,6.15-3.3a5.92,5.92,0,0,0,1.62-7,6,6,0,0,0-1.57-2L887.18,680.7l1-1.23a1.46,1.46,0,0,0,.3-1,1.5,1.5,0,0,0-.15-.51,1.36,1.36,0,0,0-.34-.41l-34.78-28.78c-6.2-5.17-14.94-6.84-23.85-4.64a1.55,1.55,0,0,0-.54.28,1.48,1.48,0,0,0-.37.49Zm38.34,40.64a112.88,112.88,0,0,1-35.05-39.14,23.77,23.77,0,0,1,19.74,4.45l33.7,27.88-10.29,12.45-8.1-5.64Z"/><path d="M653.05,714.44h61.86c9-.65,5.65-11.65,3.09-16.94a91.79,91.79,0,0,1-7.34-34.75,10.89,10.89,0,0,0-.75-21.75H668.13a11.93,11.93,0,0,0-11.92,11.91v8.62a1.3,1.3,0,0,0,.37.89,1.26,1.26,0,0,0,.9.37h1.76v3.71a1.26,1.26,0,0,0,.37.9,1.31,1.31,0,0,0,.9.37h5.15v7.68H652.41a1.3,1.3,0,0,0-.89.37,1.26,1.26,0,0,0-.37.9v11.84a15.75,15.75,0,0,0,9.6,14.48H653.3a6.25,6.25,0,0,0-2.37.5,6,6,0,0,0-2,1.37C645.41,708.3,648.25,714.59,653.05,714.44ZM670.39,651a1.24,1.24,0,0,1,.37.89,1.26,1.26,0,0,1-.37.9,1.3,1.3,0,0,1-.89.37H667a1.3,1.3,0,0,1-.89-.37,1.26,1.26,0,0,1-.37-.9,1.24,1.24,0,0,1,.37-.89,1.26,1.26,0,0,1,.89-.37h2.54A1.26,1.26,0,0,1,670.39,651Zm1.7,14.23H661.71v-2.45H672Zm6.8-14.23a1.24,1.24,0,0,1,.37.89,1.26,1.26,0,0,1-.37.9,1.31,1.31,0,0,1-.9.37h-2.53a1.26,1.26,0,0,1-1.27-1.27,1.28,1.28,0,0,1,.37-.89,1.26,1.26,0,0,1,.9-.37H678A1.26,1.26,0,0,1,678.89,651Zm7.71-.37a1.26,1.26,0,0,1,.9.37,1.24,1.24,0,0,1,.37.89,1.26,1.26,0,0,1-.37.9,1.31,1.31,0,0,1-.9.37H684a1.26,1.26,0,0,1-1.27-1.27,1.28,1.28,0,0,1,.37-.89,1.26,1.26,0,0,1,.9-.37h2.58Zm2.9,12.19A52.51,52.51,0,0,1,700,694.18V698a5.07,5.07,0,0,1-5.07,5.06H673.1a15.77,15.77,0,0,0,9.58-14.48V676.72a1.26,1.26,0,0,0-1.27-1.27H668.13v-7.68h5.16a1.31,1.31,0,0,0,.9-.37,1.26,1.26,0,0,0,.37-.9v-3.71ZM650.82,711c-2.13-2-.3-5.48,2.48-5.4h41.61a7.61,7.61,0,0,0,7.6-7.6v-3.8a55.14,55.14,0,0,0-9.88-31.39h15.5a94.38,94.38,0,0,0,7.54,35.7c1.5,3.38,5.47,12.9-.76,13.42H653.05a3.07,3.07,0,0,1-1.24-.23,3.12,3.12,0,0,1-1-.7Z"/><path d="M439.74,662a1.38,1.38,0,0,0,.42,1l18.9,18.92a13.71,13.71,0,0,0,19.38,0l2.11-2.11,16.75,16.7-2.09,2.09a1.44,1.44,0,0,0-.31.46,1.43,1.43,0,0,0,0,1.1,1.44,1.44,0,0,0,.31.46l17.07,17.17a5.84,5.84,0,0,0,8.26-8.27l-17.17-17.06a1.29,1.29,0,0,0-.46-.31,1.41,1.41,0,0,0-1.09,0,1.33,1.33,0,0,0-.47.31l-2.09,2L482.55,677.8l2.12-2.1a13.75,13.75,0,0,0,0-19.39l-18.91-18.9a1.44,1.44,0,0,0-2,0L440.16,661A1.38,1.38,0,0,0,439.74,662Zm58.44,37.57,4.14-4.14,16.2,16.15a3,3,0,0,1,.87,2.1,3,3,0,0,1-.87,2.09,3,3,0,0,1-4.18,0Zm-21.37-36a1.44,1.44,0,0,1-2,0l-8.37-8.38a1.41,1.41,0,0,1-.35-1,1.44,1.44,0,0,1,1.37-1.37,1.41,1.41,0,0,1,1,.35l8.38,8.37a1.44,1.44,0,0,1,0,2Zm-18.92-6.42a1.45,1.45,0,0,1-.34-1,1.43,1.43,0,0,1,2.35-1l14.94,15a1.38,1.38,0,0,1,.42,1,1.42,1.42,0,0,1-.42,1,1.37,1.37,0,0,1-1,.41,1.41,1.41,0,0,1-1-.41Zm-2,8.54a1.43,1.43,0,0,1-.34-1,1.42,1.42,0,0,1,1.36-1.37,1.45,1.45,0,0,1,1,.34l8.38,8.38a1.39,1.39,0,0,1,.41,1,1.37,1.37,0,0,1-.41,1,1.42,1.42,0,0,1-1,.42,1.38,1.38,0,0,1-1-.42l-8.38-8.37Z"/><path d="M289.49,655.42l-7.08,9.28c-5.87,7.68-3.36,19.46,5.6,26.31l30.15,23c5.13,3.91,12,3.52,15.35-.87l7.09-9.27c3.35-4.39,1.91-11.12-3.21-15l-5.67-4.33a12.64,12.64,0,0,1-4.78-7.34l-2.22-10.44a22.22,22.22,0,0,0-8.37-12.84C307.39,647.06,295.36,647.74,289.49,655.42Zm-2.77,13.38a22.14,22.14,0,0,0,8.38,12.93l30.15,23a13,13,0,0,0,5.48,2.44l-1.86,2.43c-1.37,1.8-4.65,1.69-7.16-.23l-30.15-23C285.38,681.65,283.34,673.93,286.72,668.8Zm7.41-9.84c3.91-5.11,12.29-5.3,18.68-.42A16.27,16.27,0,0,1,319,668l2.22,10.44a18.48,18.48,0,0,0,6.95,10.76l5.67,4.33c2.51,1.92,3.48,5.06,2.11,6.86s-4.66,1.69-7.17-.24l-30.15-23C292.25,672.21,290.23,664.08,294.13,659Z"/><ellipse cx="305.73" cy="667.82" rx="4.38" ry="5.47" transform="translate(-410.58 505.48) rotate(-52.63)"/><path d="M110.26,667.28,140.5,686.1A17.9,17.9,0,0,0,150.1,666,9.5,9.5,0,0,1,137,669l2.81-4.52a32.65,32.65,0,0,0,4.1-24.73,17.86,17.86,0,0,1-11.14,8l-8.73,2a17.88,17.88,0,0,0-13.8,17.5Z"/><path d="M75.18,653.54l-2.72,4.36,22.39,16a13.71,13.71,0,0,0,4.4,18.89l23.29,14.48a13.71,13.71,0,0,0,18.89-4.4l3.62-5.82Z"/><path d="M27.06,11.8a22.22,22.22,0,0,0-8.37,12.84L16.46,35.08a12.67,12.67,0,0,1-4.77,7.34L6,46.75C.89,50.66-.54,57.4,2.81,61.79L9.9,71.06c3.35,4.39,10.22,4.78,15.34.87l30.15-23c9-6.84,11.48-18.62,5.61-26.3l-7.09-9.28C48.05,5.64,36,5,27.06,11.8ZM51.85,44.27l-30.15,23c-2.51,1.92-5.8,2-7.17.23l-1.85-2.43a13,13,0,0,0,5.48-2.44l30.15-23A22.2,22.2,0,0,0,56.69,26.7C60.07,31.83,58,39.55,51.85,44.27ZM44.77,35,14.62,58c-2.52,1.92-5.8,2-7.17.23S7,53.31,9.56,51.39l5.67-4.33A18.46,18.46,0,0,0,22.17,36.3L24.4,25.86a16.27,16.27,0,0,1,6.2-9.42c6.39-4.88,14.77-4.69,18.68.42S51.16,30.11,44.77,35Z"/><ellipse cx="37.68" cy="25.72" rx="5.47" ry="4.38" transform="translate(-7.87 28.15) rotate(-37.37)"/><path d="M223,35.59a17.9,17.9,0,0,0-13.81-17.5l-8.73-2a17.84,17.84,0,0,1-11.14-8,32.63,32.63,0,0,0,4.1,24.72l2.81,4.52a9.5,9.5,0,0,1-13.08-3,17.9,17.9,0,0,0,9.6,20.13L223,35.6Z"/><path d="M188.23,65.31l3.63,5.82a13.71,13.71,0,0,0,18.88,4.41L234,61.05a13.72,13.72,0,0,0,4.4-18.89l22.38-15.95-2.71-4.36Z"/><path d="M458.29,7.91a1.48,1.48,0,0,0-.37-.49,1.55,1.55,0,0,0-.54-.28c-8.91-2.2-17.65-.53-23.85,4.64L398.75,40.56a1.36,1.36,0,0,0-.34.41,1.5,1.5,0,0,0-.15.51,1.41,1.41,0,0,0,.3,1l1,1.23L376,63.23a5.87,5.87,0,0,0-1.54,7.06,5.78,5.78,0,0,0,1.59,2c1.7,1.4,3.76,3.39,6.15,3.3a4.79,4.79,0,0,0,3.74-1.55,4.83,4.83,0,0,0,1-1.8,4.69,4.69,0,0,0,.17-2.07,2.27,2.27,0,0,1,.82-2.14l18.91-15.63,3.66,4.43a1.65,1.65,0,0,0,.41.34,1.57,1.57,0,0,0,.51.15,1.37,1.37,0,0,0,.9-.23l9.15-6.35A115.54,115.54,0,0,0,458.24,9.09a1.33,1.33,0,0,0,.16-.58,1.36,1.36,0,0,0-.11-.6ZM420,48.55l-8.1,5.64L401.56,41.74l33.69-27.88A23.8,23.8,0,0,1,455,9.41,113.08,113.08,0,0,1,420,48.55Z"/><path d="M637.84,67.91a6,6,0,0,0-2-1.37,6.25,6.25,0,0,0-2.37-.5H626a15.79,15.79,0,0,0,9.6-14.48V39.72a1.26,1.26,0,0,0-.37-.9,1.31,1.31,0,0,0-.9-.37H621.11V30.77h5.15a1.31,1.31,0,0,0,.9-.37,1.26,1.26,0,0,0,.37-.9V25.79h1.76a1.24,1.24,0,0,0,.89-.37,1.26,1.26,0,0,0,.37-.89V15.91A11.92,11.92,0,0,0,618.64,4H576.86a10.89,10.89,0,0,0-.75,21.75,94,94,0,0,1-1.85,17.14,92.42,92.42,0,0,1-5.5,17.61c-2.55,5.29-5.86,16.29,3.09,16.94h61.87C638.52,77.59,641.36,71.3,637.84,67.91ZM617.27,13.64h2.53a1.26,1.26,0,0,1,.9.37,1.24,1.24,0,0,1,.37.89,1.26,1.26,0,0,1-.37.9,1.31,1.31,0,0,1-.9.37h-2.53a1.28,1.28,0,0,1-.89-.37,1.26,1.26,0,0,1-.37-.9,1.26,1.26,0,0,1,1.26-1.26Zm-2.53,12.15h10.32v2.45H614.68Zm-6-12.15h2.53a1.26,1.26,0,0,1,1.26,1.26,1.26,1.26,0,0,1-.37.9,1.28,1.28,0,0,1-.89.37h-2.53a1.31,1.31,0,0,1-.9-.37,1.26,1.26,0,0,1-.37-.9,1.24,1.24,0,0,1,.37-.89A1.26,1.26,0,0,1,608.78,13.64Zm-8.56,0h2.53A1.28,1.28,0,0,1,604,14.9a1.28,1.28,0,0,1-1.27,1.27h-2.58a1.31,1.31,0,0,1-.9-.37,1.26,1.26,0,0,1-.37-.9,1.24,1.24,0,0,1,.37-.89,1.26,1.26,0,0,1,.9-.37Zm12,12.15V29.5a1.26,1.26,0,0,0,.37.9,1.3,1.3,0,0,0,.89.37h5.17v7.68H605.36a1.31,1.31,0,0,0-.9.37,1.26,1.26,0,0,0-.37.9V51.56A15.74,15.74,0,0,0,613.66,66H591.85A5.07,5.07,0,0,1,586.78,61v-3.8a52.51,52.51,0,0,1,10.49-31.35ZM636,74a3.12,3.12,0,0,1-1,.7,3.07,3.07,0,0,1-1.24.23H571.85c-6.23-.52-2.25-10-.76-13.42a94.14,94.14,0,0,0,7.55-35.7h15.5a55.14,55.14,0,0,0-9.88,31.39V61a7.61,7.61,0,0,0,7.6,7.6h41.61c2.78-.08,4.61,3.39,2.48,5.4Z"/><path d="M846.61,24,823,.41a1.44,1.44,0,0,0-2,0L802.1,19.31a13.72,13.72,0,0,0,0,19.39l2.12,2.1L787.5,57.51l-2.09-2a1.29,1.29,0,0,0-.46-.31,1.41,1.41,0,0,0-1.09,0,1.42,1.42,0,0,0-.47.31L766.23,72.53a5.84,5.84,0,1,0,8.26,8.27l17.07-17.17a1.44,1.44,0,0,0,.31-.46,1.43,1.43,0,0,0,0-1.1,1.44,1.44,0,0,0-.31-.46l-2.09-2.09,16.75-16.7,2.11,2.11a13.71,13.71,0,0,0,19.38,0L846.61,26a1.42,1.42,0,0,0,0-2ZM772.43,78.78a3,3,0,0,1-4.18,0,3,3,0,0,1-.65-1,3.15,3.15,0,0,1-.22-1.13,3,3,0,0,1,.87-2.1l16.2-16.15,4.14,4.14ZM810,26.57a1.44,1.44,0,0,1,0-2l8.38-8.37a1.41,1.41,0,0,1,1-.35,1.46,1.46,0,0,1,.95.42,1.4,1.4,0,0,1,.41.95,1.36,1.36,0,0,1-.34,1L812,26.57a1.44,1.44,0,0,1-2,0Zm4,8.53a1.44,1.44,0,0,1-2,0,1.45,1.45,0,0,1-.41-1,1.41,1.41,0,0,1,.41-1l15-15a1.43,1.43,0,0,1,1.93.07,1.42,1.42,0,0,1,.08,1.93Zm16.91-6.41-8.38,8.37a1.42,1.42,0,0,1-2.42-1,1.4,1.4,0,0,1,.42-1l8.37-8.38a1.48,1.48,0,0,1,1-.34,1.44,1.44,0,0,1,1.37,1.37,1.48,1.48,0,0,1-.34,1Z"/><path d="M970.42,16.9a22.22,22.22,0,0,0-8.37,12.84l-2.22,10.44a12.69,12.69,0,0,1-4.78,7.34l-5.67,4.33c-5.13,3.92-6.56,10.65-3.21,15l7.09,9.27c3.35,4.39,10.22,4.78,15.34.87l30.15-23c9-6.85,11.48-18.63,5.61-26.31l-7.08-9.28C991.41,10.74,979.38,10.06,970.42,16.9Zm24.79,32.47-30.15,23c-2.51,1.92-5.8,2-7.16.23L956,70.19a13,13,0,0,0,5.48-2.44l30.15-23a22.14,22.14,0,0,0,8.38-12.93C1003.43,36.93,1001.39,44.65,995.21,49.37Zm-7.08-9.28L958,63.11c-2.52,1.93-5.8,2-7.17.24s-.4-4.94,2.11-6.86l5.67-4.33a18.46,18.46,0,0,0,6.94-10.76L967.76,31a16.27,16.27,0,0,1,6.2-9.42c6.39-4.88,14.77-4.69,18.68.42S994.52,35.21,988.13,40.09Z"/><ellipse cx="981.04" cy="30.82" rx="5.47" ry="4.38" transform="translate(182.65 601.74) rotate(-37.37)"/><path d="M1176.51,30.28a17.88,17.88,0,0,0-13.81-17.5l-8.72-2a17.86,17.86,0,0,1-11.14-8,32.65,32.65,0,0,0,4.1,24.73l2.81,4.52A9.5,9.5,0,0,1,1136.67,29a17.89,17.89,0,0,0,9.6,20.13l30.24-18.82Z"/><path d="M1141.72,60l3.62,5.82a13.71,13.71,0,0,0,18.89,4.4l23.29-14.48a13.71,13.71,0,0,0,4.4-18.89l22.39-16-2.72-4.36Z"/><path d="M1233.85,149.32l-7.08,9.28c-5.87,7.68-3.36,19.46,5.61,26.3l30.15,23c5.12,3.91,12,3.52,15.34-.87l7.09-9.27c3.35-4.39,1.92-11.13-3.21-15l-5.67-4.33a12.69,12.69,0,0,1-4.78-7.34l-2.22-10.44a22.22,22.22,0,0,0-8.37-12.84C1251.75,141,1239.72,141.64,1233.85,149.32Zm-2.77,13.38a22.2,22.2,0,0,0,8.38,12.93l30.15,23a13,13,0,0,0,5.48,2.44l-1.86,2.43c-1.36,1.8-4.65,1.69-7.16-.23l-30.15-23C1229.74,175.55,1227.7,167.83,1231.08,162.7Zm7.41-9.84c3.91-5.11,12.29-5.3,18.68-.42a16.27,16.27,0,0,1,6.2,9.42l2.23,10.44a18.46,18.46,0,0,0,6.94,10.76l5.67,4.33c2.51,1.92,3.48,5.06,2.11,6.85s-4.65,1.69-7.17-.23L1243,171C1236.61,166.11,1234.59,158,1238.49,152.86Z"/><ellipse cx="1250.09" cy="161.72" rx="4.38" ry="5.47" transform="translate(362.85 1057.09) rotate(-52.63)"/><path d="M1064.74,171.6,1095,190.41a17.89,17.89,0,0,0,9.59-20.13,9.49,9.49,0,0,1-13.07,3.05l2.81-4.52a32.72,32.72,0,0,0,4.1-24.72,17.84,17.84,0,0,1-11.14,8l-8.73,2a17.89,17.89,0,0,0-13.81,17.5Z"/><path d="M1029.66,157.85l-2.71,4.36,22.38,15.95a13.72,13.72,0,0,0,4.4,18.89L1077,211.54a13.72,13.72,0,0,0,18.89-4.41l3.63-5.82Z"/><path d="M829.48,143.91a1.36,1.36,0,0,0-.11.6,1.33,1.33,0,0,0,.16.58,115.54,115.54,0,0,0,36.79,41.67l9.15,6.35a1.36,1.36,0,0,0,.9.23,1.45,1.45,0,0,0,.5-.15,1.53,1.53,0,0,0,.42-.34l3.66-4.43,18.91,15.63a2.33,2.33,0,0,1,.82,2.14,4.78,4.78,0,0,0,1.2,3.87,4.79,4.79,0,0,0,3.74,1.55c2.39.09,4.45-1.9,6.15-3.3a5.92,5.92,0,0,0,1.62-7,6,6,0,0,0-1.57-2L888.18,179.7l1-1.23a1.46,1.46,0,0,0,.3-1,1.5,1.5,0,0,0-.15-.51,1.36,1.36,0,0,0-.34-.41l-34.78-28.78c-6.2-5.17-14.94-6.84-23.85-4.64a1.55,1.55,0,0,0-.54.28,1.48,1.48,0,0,0-.37.49Zm38.34,40.64a112.88,112.88,0,0,1-35.05-39.14,23.77,23.77,0,0,1,19.74,4.45l33.7,27.88-10.29,12.45-8.1-5.64Z"/><path d="M654.05,213.44h61.86c9-.65,5.65-11.65,3.09-16.94a91.79,91.79,0,0,1-7.34-34.75,10.89,10.89,0,0,0-.75-21.75H669.13a11.93,11.93,0,0,0-11.92,11.91v8.62a1.3,1.3,0,0,0,.37.89,1.26,1.26,0,0,0,.9.37h1.76v3.71a1.26,1.26,0,0,0,.37.9,1.31,1.31,0,0,0,.9.37h5.15v7.68H653.41a1.3,1.3,0,0,0-.89.37,1.26,1.26,0,0,0-.37.9v11.84a15.75,15.75,0,0,0,9.6,14.48H654.3a6.25,6.25,0,0,0-2.37.5,6,6,0,0,0-2,1.37C646.41,207.3,649.25,213.59,654.05,213.44ZM671.39,150a1.24,1.24,0,0,1,.37.89,1.26,1.26,0,0,1-.37.9,1.3,1.3,0,0,1-.89.37H668a1.3,1.3,0,0,1-.89-.37,1.26,1.26,0,0,1-.37-.9,1.24,1.24,0,0,1,.37-.89,1.26,1.26,0,0,1,.89-.37h2.54A1.26,1.26,0,0,1,671.39,150Zm1.7,14.23H662.71v-2.45H673Zm6.8-14.23a1.24,1.24,0,0,1,.37.89,1.26,1.26,0,0,1-.37.9,1.31,1.31,0,0,1-.9.37h-2.53a1.26,1.26,0,0,1-1.27-1.27,1.28,1.28,0,0,1,.37-.89,1.26,1.26,0,0,1,.9-.37H679A1.26,1.26,0,0,1,679.89,150Zm7.71-.37a1.26,1.26,0,0,1,.9.37,1.24,1.24,0,0,1,.37.89,1.26,1.26,0,0,1-.37.9,1.31,1.31,0,0,1-.9.37H685a1.26,1.26,0,0,1-1.27-1.27,1.28,1.28,0,0,1,.37-.89,1.26,1.26,0,0,1,.9-.37h2.58Zm2.9,12.19A52.51,52.51,0,0,1,701,193.18V197a5.07,5.07,0,0,1-5.07,5.06H674.1a15.77,15.77,0,0,0,9.58-14.48V175.72a1.26,1.26,0,0,0-1.27-1.27H669.13v-7.68h5.16a1.31,1.31,0,0,0,.9-.37,1.26,1.26,0,0,0,.37-.9v-3.71ZM651.82,210c-2.13-2-.3-5.48,2.48-5.4h41.61a7.61,7.61,0,0,0,7.6-7.6v-3.8a55.14,55.14,0,0,0-9.88-31.39h15.5a94.38,94.38,0,0,0,7.54,35.7c1.5,3.38,5.47,12.9-.76,13.42H654.05a3.07,3.07,0,0,1-1.24-.23,3.12,3.12,0,0,1-1-.7Z"/><path d="M440.74,161a1.38,1.38,0,0,0,.42,1l18.9,18.92a13.71,13.71,0,0,0,19.38,0l2.11-2.11,16.75,16.7-2.09,2.09a1.44,1.44,0,0,0-.31.46,1.43,1.43,0,0,0,0,1.1,1.44,1.44,0,0,0,.31.46l17.07,17.17a5.84,5.84,0,0,0,8.26-8.27l-17.17-17.06a1.29,1.29,0,0,0-.46-.31,1.41,1.41,0,0,0-1.09,0,1.33,1.33,0,0,0-.47.31l-2.09,2L483.55,176.8l2.12-2.1a13.75,13.75,0,0,0,0-19.39l-18.91-18.9a1.44,1.44,0,0,0-2,0L441.16,160A1.38,1.38,0,0,0,440.74,161Zm58.44,37.57,4.14-4.14,16.2,16.15a3,3,0,0,1,.87,2.1,3,3,0,0,1-.87,2.09,3,3,0,0,1-4.18,0Zm-21.37-36a1.44,1.44,0,0,1-2,0l-8.37-8.38a1.41,1.41,0,0,1-.35-1,1.44,1.44,0,0,1,1.37-1.37,1.41,1.41,0,0,1,1,.35l8.38,8.37a1.44,1.44,0,0,1,0,2Zm-18.92-6.42a1.45,1.45,0,0,1-.34-1,1.43,1.43,0,0,1,2.35-1l14.94,14.95a1.38,1.38,0,0,1,.42,1,1.42,1.42,0,0,1-.42,1,1.37,1.37,0,0,1-1,.41,1.41,1.41,0,0,1-1-.41Zm-2,8.54a1.43,1.43,0,0,1-.34-1,1.42,1.42,0,0,1,1.36-1.37,1.45,1.45,0,0,1,1,.34l8.38,8.38a1.39,1.39,0,0,1,.41,1,1.37,1.37,0,0,1-.41,1,1.42,1.42,0,0,1-1,.42,1.38,1.38,0,0,1-1-.42l-8.38-8.37Z"/><path d="M290.49,154.42l-7.08,9.28c-5.87,7.68-3.36,19.46,5.6,26.31l30.15,23c5.13,3.91,12,3.52,15.35-.87l7.09-9.27c3.35-4.39,1.91-11.12-3.21-15l-5.67-4.33a12.64,12.64,0,0,1-4.78-7.34l-2.22-10.44a22.22,22.22,0,0,0-8.37-12.84C308.39,146.06,296.36,146.74,290.49,154.42Zm-2.77,13.38a22.14,22.14,0,0,0,8.38,12.93l30.15,23a13,13,0,0,0,5.48,2.44l-1.86,2.43c-1.37,1.8-4.65,1.69-7.16-.23l-30.15-23C286.38,180.65,284.34,172.93,287.72,167.8Zm7.41-9.84c3.91-5.11,12.29-5.3,18.68-.42A16.27,16.27,0,0,1,320,167l2.22,10.44a18.48,18.48,0,0,0,6.95,10.76l5.67,4.33c2.51,1.92,3.48,5.06,2.11,6.86s-4.66,1.69-7.17-.24l-30.15-23C293.25,171.21,291.23,163.08,295.13,158Z"/><ellipse cx="306.73" cy="166.82" rx="4.38" ry="5.47" transform="translate(-12.01 309.35) rotate(-52.63)"/><path d="M111.26,166.28,141.5,185.1A17.9,17.9,0,0,0,151.1,165,9.5,9.5,0,0,1,138,168l2.81-4.52a32.65,32.65,0,0,0,4.1-24.73,17.86,17.86,0,0,1-11.14,8l-8.73,2a17.88,17.88,0,0,0-13.8,17.5Z"/><path d="M76.18,152.54l-2.72,4.36,22.39,15.95a13.71,13.71,0,0,0,4.4,18.89l23.29,14.48a13.71,13.71,0,0,0,18.89-4.4l3.62-5.82Z"/></g></g></svg>